<svg width="40" height="40" viewBox="0 0 40 40" fill="none" xmlns="http://www.w3.org/2000/svg">
  <path d="M18 22C18.7956 22.8027 19.8807 23.2547 21 23.2547C22.1193 23.2547 23.2044 22.8027 24 22L28 18C29.6569 16.3431 29.6569 13.6569 28 12C26.3431 10.3431 23.6569 10.3431 22 12L20 14" stroke="currentColor" stroke-width="1.2" stroke-linecap="round"/>
  <path d="M22 18C21.2044 17.1973 20.1193 16.7453 19 16.7453C17.8807 16.7453 16.7956 17.1973 16 18L12 22C10.3431 23.6569 10.3431 26.3431 12 28C13.6569 29.6569 16.3431 29.6569 18 28L20 26" stroke="currentColor" stroke-width="1.2" stroke-linecap="round"/>
</svg>
